<svg width="25" height="24" viewBox="0 0 25 24" fill="none" xmlns="http://www.w3.org/2000/svg">
<path d="M24.4056 11.9662V11.6958V11.6282C24.4056 11.6282 24.4056 11.493 24.4056 11.4254L24.338 11.0873C24.338 11.0197 24.338 10.9521 24.338 10.8845C24.338 10.8169 24.338 10.8169 24.338 10.8169C24.338 10.8169 24.338 10.6817 24.338 10.6141V10.4789C24.338 10.4113 24.338 10.3437 24.338 10.2761C24.338 10.2084 24.338 10.1408 24.2704 10.0056C24.2704 9.93803 24.2704 9.87042 24.2028 9.80282V9.73521C24.2028 9.66761 24.2028 9.6 24.1352 9.53239C24.1352 9.46479 24.0676 9.39718 24.0676 9.26197C24.0676 9.19436 24 9.12676 24 9.05916C24 8.99155 24 8.99155 24 8.99155L23.9324 8.78873V8.72113C23.9324 8.65352 23.8648 8.58591 23.8648 8.51831L23.7972 8.24788C23.7972 8.18028 23.7296 8.11268 23.7296 7.97747C23.7296 7.90986 23.662 7.84225 23.662 7.70704L23.4591 7.43662V7.36902C23.4591 7.36902 23.3915 7.2338 23.3915 7.1662C23.3239 7.03098 23.2563 6.82817 23.1887 6.69296L22.9859 6.42253C22.9183 6.35493 22.9183 6.28732 22.8507 6.21972C22.7831 6.15211 22.7831 6.0169 22.7155 5.9493C22.6479 5.88169 22.6479 5.81408 22.5803 5.74648C22.5803 5.74648 22.5803 5.74648 22.5803 5.67887L22.4451 5.47606C22.4451 5.47606 22.4451 5.47606 22.4451 5.40845C22.3775 5.34085 22.3775 5.27324 22.3099 5.20563L22.107 5.13803V5.07042C22.0394 4.93521 21.9718 4.86761 21.9042 4.73239L21.8366 4.66479C21.7014 4.46197 21.4986 4.25915 21.3634 4.05634L21.2958 3.98873C21.0253 3.65071 20.6873 3.38028 20.4169 3.10986L20.2817 3.04225C20.1465 2.90704 20.0113 2.77183 19.8084 2.63662L19.6732 2.56902C19.538 2.50141 19.4704 2.3662 19.3352 2.29859L19.2 2.23099C19.0648 2.16338 18.9296 2.02817 18.7944 1.96056L18.5915 1.82535L18.3887 1.69014C18.1183 1.48732 17.7803 1.35211 17.5099 1.2169L17.3746 1.14929L17.2394 1.01408L17.1042 0.94648C17.1042 0.94648 17.0366 0.946481 17.0366 0.878875C16.9014 0.81127 16.8338 0.811267 16.6986 0.743661L16.5634 0.676056L16.3606 0.608452L16.1577 0.540847H16.0901C15.9549 0.473241 15.8873 0.473238 15.7521 0.405633L15.6169 0.338028H15.2789L15.0761 0.270424C14.8732 0.202818 14.6028 0.135209 14.4 0.135209L14.1972 0.0676046H13.9944H13.8592L13.5887 0H13.4535H13.2507H13.1831C13.0479 0 12.9803 0 12.8451 0H12.7775H12.6423H12.4394H11.831H11.6282H11.493H11.4253H11.0873H10.9521H10.7493H10.6141H10.3437H10.2084H10.0056L9.80282 0.0676046C9.6 0.13521 9.32958 0.135213 9.12676 0.202819L8.99155 0.338028L8.72112 0.405633L8.58591 0.473237C8.4507 0.473237 8.3831 0.540846 8.24789 0.608452H8.18028L7.97746 0.676056L7.77465 0.743661L7.63943 0.811266C7.50422 0.878871 7.43662 0.878874 7.30141 0.94648H7.2338L7.09859 1.01408L6.96338 1.08169L6.82817 1.14929C6.49014 1.28451 6.21972 1.48732 5.94929 1.62254L5.81408 1.69014L5.61127 1.82535L5.40845 1.96056C5.27324 2.02817 5.13803 2.16338 5.00282 2.23099L4.8676 2.29859C4.73239 2.3662 4.59718 2.50141 4.52958 2.56902L4.39436 2.63662C4.25915 2.77183 4.05634 2.90704 3.92113 3.04225C3.85352 3.04225 3.85352 3.10986 3.78592 3.10986C3.51549 3.38028 3.17746 3.71831 2.90704 3.98873L2.83944 4.05634C2.70423 4.25915 2.50141 4.39437 2.3662 4.66479L2.29859 4.73239C2.23099 4.86761 2.16338 4.93521 2.09578 5.07042L2.02817 5.13803L1.89296 5.34085L1.75775 5.54366V5.61127V5.74648V5.81408L1.62254 6.0169C1.55493 6.08451 1.48732 6.21972 1.48732 6.28733C1.41972 6.35493 1.41972 6.42253 1.35211 6.49014L1.2169 6.69296C1.14929 6.82817 1.08169 7.03098 1.01408 7.1662L0.94648 7.36902V7.43662L0.878872 7.63944C0.878872 7.70704 0.811268 7.77465 0.811268 7.90986C0.811268 7.97746 0.743663 8.04507 0.743663 8.18028L0.47324 8.3831C0.47324 8.45071 0.405635 8.51831 0.405635 8.58591V8.65352C0.405635 8.72113 0.338028 8.78873 0.338028 8.85634V8.92394C0.338028 8.99155 0.270424 9.05915 0.270424 9.12676L0.202816 9.39718C0.202816 9.46479 0.202817 9.53239 0.135212 9.6V9.66761C0.135212 9.73521 0.135213 9.80282 0.0676072 9.87042L0 10.1408V10.4789V10.5465V10.7493V10.8169C0 10.8169 0 10.9521 0 11.0197C0 11.0873 0 11.2225 0 11.3577C0 11.493 0 11.493 0 11.5606C0 11.6282 0 11.6282 0 11.6282V11.831V11.8986C0 11.9662 0 12.1014 0 12.169C0 12.2366 0 12.3718 0 12.507V12.6423C0 12.7099 0 12.7775 0 12.8451C0 12.9127 0 12.9803 0 12.9803C0 13.0479 0 13.0479 0 13.1155V13.1831C0 13.2507 0 13.2507 0 13.3183C0 13.3859 0 13.4535 0 13.4535V13.5211V13.6563C0 13.7239 0 13.7239 0 13.7915C0 13.8592 1.54636e-06 13.9944 0.0676072 14.062C0.0676072 14.1296 0.0676072 14.1972 0.0676072 14.1972C0.0676072 14.2648 0.0676072 14.3324 0.0676072 14.3324C0.0676072 14.4 0.0676072 14.4 0.0676072 14.4C0.0676072 14.4676 0.135212 14.5352 0.135212 14.6704C0.202817 14.8056 0.202818 15.0085 0.270424 15.1437C0.338029 15.2789 0.33803 15.4141 0.405635 15.5493C0.540846 16.0901 0.743662 16.631 1.01408 17.1042L1.08169 17.1718C1.1493 17.307 1.2169 17.4423 1.28451 17.5775C1.35211 17.7127 1.35211 17.7803 1.41972 17.8479C1.55493 18.0507 1.69014 18.3211 1.82535 18.5239L1.89296 18.6592C2.4338 19.4704 3.04225 20.2141 3.78592 20.8901L3.92113 21.0254L3.98873 21.093C4.05634 21.1606 4.12394 21.2282 4.19155 21.2282C6.76056 23.3916 10.6141 23.1211 12.8451 20.5521C13.7915 19.4704 14.3324 18.0507 14.3324 16.5634V12.8451H12.3042C11.1549 12.8451 10.2761 13.7915 10.2761 14.8732V16.4958C10.2761 17.6451 9.39718 18.5239 8.24789 18.5915C7.77465 18.5915 7.30141 18.4563 6.96338 18.1183C6.89577 18.1183 6.89577 18.0507 6.82817 17.9831L6.76056 17.9155C5.07042 16.3606 4.12394 14.1972 4.12394 11.8986C4.12394 7.36901 7.77465 3.71831 12.3042 3.71831C16.8338 3.71831 20.4845 7.36901 20.4845 11.8986C20.4845 15.1437 18.5915 18.1183 15.5493 19.4028C14.8056 19.7408 14.3324 20.4845 14.3324 21.2958V24C15.2789 23.8648 16.2253 23.5268 17.1718 23.1887H17.2394L17.4422 23.1211L17.6451 23.0535L17.8479 22.9183L18.0507 22.8507L18.1859 22.7831L18.3211 22.7155L18.5239 22.5803C18.6591 22.5127 18.7944 22.3775 18.9296 22.3099L19.0648 22.2423C19.2676 22.107 19.4704 21.9718 19.6732 21.8366L19.8084 21.769C19.9437 21.7014 20.0113 21.5662 20.1465 21.4986C20.2817 21.431 20.2817 21.3634 20.3493 21.2958L20.4845 21.2282L20.6873 21.0254L20.8225 20.9577L20.9577 20.8901L21.1606 20.6873L21.431 20.3493L21.4986 20.2141L21.5662 20.0789L21.6338 19.9437L21.7014 19.8085C21.769 19.6732 21.9042 19.6056 21.9718 19.4704C22.107 19.3352 22.107 19.3352 22.1746 19.2L22.2422 19.0648C22.3099 18.9972 22.3775 18.9296 22.4451 18.7944C22.5127 18.7268 22.5127 18.7268 22.5127 18.6592C22.5127 18.5915 22.6479 18.5239 22.6479 18.3887L22.7155 18.2535C22.7831 18.1859 22.7831 18.1183 22.8507 17.9831L22.9183 17.8479C22.9859 17.7803 22.9859 17.6451 23.0535 17.5775L23.1211 17.4423C23.1211 17.3746 23.1887 17.307 23.1887 17.307L23.2563 17.1042C23.2563 17.0366 23.3239 16.969 23.3239 16.9014L23.3915 16.7662C23.3915 16.6986 23.4591 16.6986 23.4591 16.631C23.4591 16.5634 23.5268 16.5634 23.5268 16.4958C23.5268 16.4282 23.5944 16.3606 23.5944 16.293C23.5944 16.2254 23.662 16.1577 23.662 16.0901C23.662 16.0225 23.7296 15.9549 23.7296 15.8873C23.7296 15.8197 23.7972 15.7521 23.7972 15.6845L23.8648 15.4817C23.8648 15.4141 23.9324 15.3465 23.9324 15.2789C23.9324 15.2113 23.9324 15.1437 24 15.0761C24 15.0085 24 15.0084 24 15.0084L24.0676 14.8732C24.0676 14.8056 24.1352 14.6704 24.1352 14.6028L24.2028 14.4676L24.2704 14.1972C24.2704 14.1296 24.2704 14.062 24.338 13.9944C24.4056 13.9268 24.338 13.8592 24.338 13.7915C24.338 13.7915 24.338 13.7239 24.338 13.6563C24.338 13.5887 24.338 13.5887 24.338 13.5211C24.338 13.4535 24.338 13.3859 24.338 13.3183C24.338 13.2507 24.338 13.1831 24.338 13.1155C24.338 13.0479 24.338 12.9803 24.338 12.9127C24.338 12.8451 24.338 12.7775 24.338 12.7099C24.338 12.6423 24.338 12.6423 24.338 12.6423V12.507V12.3042V12.1014C24.4056 12.1014 24.4056 12.0338 24.4056 11.9662Z" fill="#FF2E2E"/>
<path d="M11.8309 6.62537C13.1154 6.62537 14.1971 7.70706 14.1971 8.99156V11.3578H11.8309C10.5464 11.3578 9.46472 10.2761 9.46472 8.99156C9.46472 7.70706 10.5464 6.62537 11.8309 6.62537Z" fill="#FF2E2E"/>
</svg>

