<?xml version="1.0" standalone="no"?>
<!DOCTYPE svg PUBLIC "-//W3C//DTD SVG 20010904//EN"
 "http://www.w3.org/TR/2001/REC-SVG-20010904/DTD/svg10.dtd">
<svg version="1.0" xmlns="http://www.w3.org/2000/svg"
 width="800.000000pt" height="800.000000pt" viewBox="0 0 800.000000 800.000000"
 preserveAspectRatio="xMidYMid meet">
<metadata>
Created by potrace 1.11, written by Peter Selinger 2001-2013
</metadata>
<g transform="translate(0.000000,800.000000) scale(0.100000,-0.100000)"
fill="#000000" stroke="none">
<path d="M3145 7823 c-39 -14 -56 -18 -145 -29 -52 -7 -93 -26 -112 -51 -7
-10 -29 -20 -48 -21 -19 -2 -47 -10 -62 -18 -15 -8 -31 -14 -36 -14 -5 0 -31
-10 -58 -22 -27 -12 -56 -23 -64 -23 -8 -1 -28 -7 -43 -13 -16 -7 -33 -12 -38
-12 -6 0 -36 -12 -67 -26 -31 -15 -86 -37 -122 -49 -81 -28 -245 -107 -325
-155 -33 -20 -85 -50 -115 -66 -30 -16 -113 -67 -185 -114 -71 -47 -142 -92
-158 -100 -15 -7 -50 -33 -78 -57 -28 -24 -54 -43 -58 -43 -6 0 -46 -31 -141
-112 -14 -11 -41 -31 -60 -43 -19 -13 -105 -95 -190 -182 -177 -182 -209 -217
-258 -287 -20 -28 -39 -53 -43 -56 -3 -3 -13 -18 -22 -35 -13 -26 -98 -148
-127 -182 -6 -7 -7 -13 -3 -13 4 0 2 -4 -6 -9 -9 -6 -16 -29 -17 -56 -3 -51
-21 -105 -35 -105 -5 0 -9 -6 -9 -14 0 -8 -6 -16 -14 -19 -7 -3 -17 -18 -20
-34 -4 -15 -26 -57 -50 -93 -62 -94 -121 -228 -132 -299 -4 -23 -11 -44 -15
-47 -5 -3 -7 -9 -4 -14 3 -4 -2 -21 -10 -36 -8 -16 -15 -43 -15 -61 0 -17 -4
-35 -10 -38 -5 -3 -10 -17 -10 -29 0 -15 -10 -30 -28 -41 -46 -30 -71 -63 -77
-103 -4 -20 -11 -48 -15 -62 -5 -14 -11 -36 -12 -50 -2 -14 -7 -30 -10 -36 -7
-10 -23 -74 -34 -133 -3 -14 -7 -28 -10 -33 -3 -4 -7 -24 -9 -43 -3 -20 -10
-46 -17 -58 -7 -12 -14 -31 -18 -42 -10 -38 -6 -1295 5 -1303 6 -4 10 -36 10
-72 0 -36 4 -74 9 -85 5 -11 10 -27 11 -35 1 -8 9 -41 17 -72 9 -31 13 -59 10
-62 -3 -3 0 -6 6 -6 7 0 11 -3 10 -7 0 -5 1 -15 4 -23 18 -47 39 -117 40 -130
0 -8 5 -21 11 -27 5 -7 7 -13 4 -13 -13 0 106 -321 129 -352 6 -7 18 -30 28
-50 9 -20 23 -43 30 -51 14 -13 94 -168 92 -177 -1 -3 20 -39 45 -80 25 -41
74 -123 108 -181 64 -107 192 -288 264 -373 29 -34 50 -59 80 -96 29 -35 195
-206 325 -333 38 -37 75 -67 83 -67 8 0 28 -13 45 -29 48 -46 209 -152 314
-208 183 -98 383 -166 615 -208 165 -30 548 -24 665 10 8 3 33 7 55 11 77 11
321 88 382 119 15 8 33 15 40 15 6 0 13 3 15 8 2 4 37 24 78 45 128 66 223
128 350 232 51 42 237 234 283 293 181 233 331 560 373 812 3 14 9 48 14 75
21 116 23 191 25 833 l1 673 -369 -1 c-407 -2 -444 -6 -571 -71 -147 -74 -270
-215 -321 -368 -33 -100 -36 -136 -39 -506 -3 -338 -4 -359 -19 -382 -5 -7 -6
-13 -3 -13 13 0 -57 -162 -81 -188 -7 -7 -13 -18 -13 -23 0 -19 -147 -155
-204 -189 -32 -19 -61 -35 -64 -35 -4 0 -11 -3 -17 -6 -12 -8 -90 -33 -90 -30
0 1 -13 -3 -30 -9 -77 -30 -287 -15 -369 25 -16 8 -35 15 -43 15 -7 0 -13 3
-13 8 0 4 -14 13 -31 21 -45 20 -323 301 -419 423 -44 57 -85 108 -90 115 -6
7 -10 15 -10 18 0 3 -9 15 -20 27 -11 12 -26 34 -32 50 -7 15 -16 28 -20 28
-5 0 -8 4 -8 8 0 5 -23 47 -50 93 -28 46 -60 108 -72 137 -12 28 -25 52 -30
52 -4 0 -8 11 -8 25 0 14 -4 25 -10 25 -5 0 -10 8 -10 18 0 10 -4 22 -8 27
-30 35 -137 389 -156 519 -4 21 -8 41 -10 45 -5 8 -19 127 -20 173 -1 21 -4
38 -7 38 -8 0 -3 473 6 525 3 22 7 47 7 55 0 8 4 33 8 55 5 22 11 56 14 75 3
19 8 46 12 60 3 14 7 34 8 45 2 11 4 20 6 20 1 0 4 14 6 30 3 17 14 57 25 89
10 33 19 63 19 68 0 11 65 187 92 248 64 146 219 424 268 478 8 9 27 35 42 57
15 22 38 51 50 65 13 14 40 47 61 73 101 125 327 328 487 438 36 24 67 47 70
50 3 3 26 18 52 32 25 14 63 36 85 50 37 23 228 118 248 123 6 2 37 14 70 27
87 35 99 40 111 42 7 2 38 12 70 24 59 20 237 65 304 76 19 3 42 8 50 10 8 2
38 6 65 10 28 3 73 8 100 12 72 9 469 9 540 0 33 -4 78 -10 100 -13 35 -4 99
-15 175 -30 105 -21 344 -90 387 -113 10 -5 50 -21 88 -37 93 -36 268 -125
344 -174 34 -22 66 -40 71 -40 6 0 10 -4 10 -10 0 -5 5 -10 11 -10 6 0 16 -6
23 -12 8 -7 24 -20 36 -28 106 -70 202 -152 340 -290 140 -140 217 -232 295
-350 17 -25 32 -47 35 -50 8 -8 55 -83 63 -100 4 -8 17 -31 29 -50 29 -47 110
-212 138 -280 12 -30 29 -68 38 -85 9 -16 15 -31 14 -33 -2 -1 11 -45 27 -96
17 -52 33 -109 36 -127 3 -17 10 -39 15 -49 5 -9 9 -25 9 -36 0 -10 9 -60 20
-110 19 -88 23 -117 37 -274 13 -133 6 -454 -11 -535 -2 -11 -7 -42 -10 -70
-3 -27 -10 -66 -15 -85 -5 -19 -11 -51 -14 -70 -3 -19 -10 -50 -15 -68 -5 -18
-10 -36 -11 -40 -2 -20 -23 -91 -35 -125 -8 -20 -15 -39 -14 -42 0 -3 -9 -31
-21 -63 -29 -80 -31 -87 -30 -90 0 -1 -7 -16 -15 -32 -8 -16 -15 -32 -15 -35
0 -3 -7 -20 -17 -38 -9 -17 -18 -34 -18 -37 -1 -7 -77 -151 -92 -175 -7 -11
-15 -27 -19 -35 -22 -45 -141 -218 -211 -305 -76 -96 -231 -258 -323 -339 -93
-81 -309 -236 -329 -236 -5 0 -11 -4 -13 -8 -3 -9 -140 -87 -203 -116 -118
-54 -195 -93 -235 -120 -55 -36 -160 -136 -160 -153 0 -7 -4 -13 -9 -13 -5 0
-14 -14 -21 -30 -7 -17 -16 -30 -21 -30 -5 0 -8 -3 -7 -7 1 -5 -9 -30 -21 -58
-51 -113 -53 -147 -55 -652 l-1 -473 40 6 c67 10 80 12 80 14 0 2 21 6 69 14
21 3 42 8 46 11 3 2 20 7 36 9 16 3 61 15 99 26 39 12 75 22 80 23 6 2 15 5
20 8 8 5 42 16 75 24 22 5 149 48 165 55 11 5 52 19 90 31 39 12 76 26 82 31
7 6 19 8 26 5 7 -3 24 1 38 9 13 7 32 13 42 14 10 0 35 8 55 19 60 30 112 55
196 96 43 21 110 61 150 89 39 28 85 58 101 66 16 8 71 43 122 77 50 34 106
69 124 79 18 9 42 25 53 36 12 11 45 38 74 59 28 22 52 44 52 49 0 5 13 16 28
24 16 8 41 28 58 44 16 16 51 42 79 57 84 46 167 145 240 285 27 53 79 131
113 173 35 42 73 93 84 114 11 21 31 49 44 64 13 14 24 30 24 37 0 7 4 12 9
12 8 0 24 31 26 50 0 3 10 19 21 35 12 17 22 32 21 35 -1 13 17 57 28 70 7 8
23 40 36 70 13 30 27 57 31 58 4 2 8 8 8 13 0 5 17 46 39 92 21 45 49 111 62
147 12 36 35 88 49 115 15 28 56 142 93 255 37 113 79 239 93 280 14 41 27 86
30 99 3 13 10 33 16 44 14 27 28 74 34 122 4 22 13 48 21 57 8 9 12 22 8 28
-12 20 -7 570 6 586 12 14 8 235 -5 284 -4 14 -7 86 -7 160 0 132 -12 232 -32
258 -6 7 -11 27 -12 45 0 18 -6 42 -13 53 -12 23 -59 191 -73 262 -5 24 -12
48 -15 54 -4 6 -10 28 -14 47 -23 115 -64 240 -92 280 -18 25 -31 53 -31 63 1
10 -2 18 -8 18 -5 0 -9 9 -9 20 0 11 -4 28 -9 38 -5 9 -21 45 -35 80 -14 34
-30 68 -36 75 -65 79 -120 166 -120 189 0 8 -9 23 -19 32 -11 10 -25 32 -32
49 -6 18 -21 48 -33 67 -11 19 -21 40 -22 47 -4 24 -46 83 -60 84 -8 1 -18 3
-24 4 -5 1 -14 3 -18 4 -4 0 -8 10 -9 21 -1 11 -16 40 -33 65 -17 25 -29 45
-26 45 3 0 -7 12 -22 28 -16 15 -33 34 -38 43 -9 16 -32 44 -147 180 -32 38
-87 97 -124 131 -37 35 -86 82 -109 106 -23 23 -47 42 -53 42 -7 0 -36 22 -64
48 -65 61 -146 122 -162 122 -6 0 -24 14 -40 30 -16 17 -50 42 -75 57 -25 14
-98 61 -162 104 -64 44 -121 79 -127 79 -6 0 -11 4 -11 8 0 8 -126 86 -140 87
-17 2 -183 90 -202 109 -37 37 -130 84 -283 146 -18 8 -72 21 -85 22 -8 0 -82
29 -128 49 -24 11 -71 21 -105 23 -34 1 -100 14 -147 29 -47 14 -112 28 -144
31 -32 4 -66 10 -75 15 -9 4 -46 9 -82 10 -36 1 -81 6 -100 11 -20 6 -267 10
-619 9 -484 -1 -592 -4 -625 -16z"/>
<path d="M3757 5724 c-3 -4 -25 -8 -49 -10 -161 -14 -325 -93 -452 -217 -45
-45 -106 -120 -106 -132 0 -3 -6 -13 -14 -20 -21 -21 -76 -160 -91 -229 -15
-71 -13 -262 4 -321 6 -22 14 -50 17 -63 7 -35 56 -131 96 -190 116 -172 278
-277 508 -329 14 -3 213 -6 443 -7 364 -1 420 1 426 14 9 20 6 758 -3 835 -24
194 -135 385 -297 510 -107 83 -264 142 -394 149 -35 2 -68 7 -73 10 -5 3 -12
3 -15 0z"/>
</g>
</svg>
