<svg width="70" height="70" viewBox="0 0 70 70" fill="none" xmlns="http://www.w3.org/2000/svg">
    <path d="M20.4167 19.4444C22.0275 19.4444 23.3333 18.1386 23.3333 16.5278C23.3333 14.9169 22.0275 13.6111 20.4167 13.6111C18.8058 13.6111 17.5 14.9169 17.5 16.5278C17.5 18.1386 18.8058 19.4444 20.4167 19.4444Z" fill="white"/>
    <path d="M54.4367 28.5094C56.0475 28.5094 57.3533 27.2035 57.3533 25.5927C57.3533 23.9819 56.0475 22.676 54.4367 22.676C52.8258 22.676 51.52 23.9819 51.52 25.5927C51.52 27.2035 52.8258 28.5094 54.4367 28.5094Z" fill="white"/>
    <path d="M29.1599 48.619C30.7707 48.619 32.0765 47.3131 32.0765 45.7023C32.0765 44.0915 30.7707 42.7856 29.1599 42.7856C27.549 42.7856 26.2432 44.0915 26.2432 45.7023C26.2432 47.3131 27.549 48.619 29.1599 48.619Z" fill="white"/>
    <path d="M15.0082 26.3511L18.0036 23.7125L22.7033 23.52L25.5899 26.2685L26.2549 30.1379L14.5094 30.1302L15.0082 26.3511ZM49.0885 35.4181L52.0849 32.7795L56.7846 32.587L59.6701 35.3354L60.3361 39.2049L48.5897 39.1981L49.0885 35.4181ZM23.8049 55.5256L26.8003 52.887L31.501 52.6945L34.3865 55.4429L35.0515 59.3124L23.3061 59.3046L23.8049 55.5256Z" fill="white"/>
    <path d="M20.4167 19.4444C22.0275 19.4444 23.3333 18.1386 23.3333 16.5278C23.3333 14.9169 22.0275 13.6111 20.4167 13.6111C18.8058 13.6111 17.5 14.9169 17.5 16.5278C17.5 18.1386 18.8058 19.4444 20.4167 19.4444Z" stroke="white" stroke-width="0.277778" stroke-miterlimit="10"/>
    <path d="M14.5833 29.1668C14.5833 29.1668 15.5556 24.9756 17.5 24.0033C19.4444 23.0311 21.3889 23.0311 23.3333 24.0033C25.2778 24.9756 26.25 29.1668 26.25 29.1668" stroke="white" stroke-width="0.277778" stroke-miterlimit="10" stroke-linecap="round" stroke-linejoin="round"/>
    <path d="M54.4367 28.5096C56.0475 28.5096 57.3533 27.2038 57.3533 25.5929C57.3533 23.9821 56.0475 22.6763 54.4367 22.6763C52.8258 22.6763 51.52 23.9821 51.52 25.5929C51.52 27.2038 52.8258 28.5096 54.4367 28.5096Z" stroke="white" stroke-width="0.277778" stroke-miterlimit="10"/>
    <path d="M48.6033 38.2318C48.6033 38.2318 49.5756 34.0405 51.52 33.0683C53.4644 32.0961 55.4089 32.0961 57.3533 33.0683C59.2978 34.0405 60.27 38.2308 60.27 38.2308" stroke="white" stroke-width="0.277778" stroke-miterlimit="10" stroke-linecap="round" stroke-linejoin="round"/>
    <path d="M29.1599 48.619C30.7707 48.619 32.0765 47.3131 32.0765 45.7023C32.0765 44.0915 30.7707 42.7856 29.1599 42.7856C27.549 42.7856 26.2432 44.0915 26.2432 45.7023C26.2432 47.3131 27.549 48.619 29.1599 48.619Z" stroke="white" stroke-width="0.277778" stroke-miterlimit="10"/>
    <path d="M23.3265 58.3412C23.3265 58.3412 24.2987 54.1499 26.2432 53.1777C28.1876 52.2055 30.1321 52.2055 32.0765 53.1777C34.021 54.1499 34.9932 58.3402 34.9932 58.3402M51.0922 19.5767C46.9904 14.738 40.8674 11.6667 34.0278 11.6667C31.3347 11.6667 28.7544 12.1431 26.3637 13.0152M38.3376 55.9738C46.3225 54.4144 52.7868 48.6073 55.2806 40.9997M11.7512 32.0717C11.6948 32.7223 11.6666 33.3749 11.6667 34.0279C11.6667 41.7804 15.6119 48.6112 21.6047 52.6236" stroke="white" stroke-width="0.277778" stroke-miterlimit="10" stroke-linecap="round" stroke-linejoin="round"/>
</svg>
