<svg width="70" height="70" viewBox="0 0 70 70" fill="none" xmlns="http://www.w3.org/2000/svg">
    <path d="M47.7604 28.4376C46.1166 28.4376 44.5402 27.7846 43.3778 26.6223C42.2155 25.4599 41.5625 23.8835 41.5625 22.2397C41.5625 20.5959 40.9095 19.0194 39.7472 17.8571C38.5848 16.6947 37.0084 16.0417 35.3646 16.0417H34.6354C32.9916 16.0417 31.4152 16.6947 30.2528 17.8571C29.0905 19.0194 28.4375 20.5959 28.4375 22.2397C28.4375 23.8835 27.7845 25.4599 26.6222 26.6223C25.4598 27.7846 23.8834 28.4376 22.2396 28.4376C20.5958 28.4376 19.0193 29.0906 17.857 30.2529C16.6946 31.4152 16.0417 32.9917 16.0417 34.6355V35.3647C16.0417 37.0085 16.6946 38.5849 17.857 39.7473C19.0193 40.9096 20.5958 41.5626 22.2396 41.5626C23.8834 41.5626 25.4598 42.2156 26.6222 43.3779C27.7845 44.5402 28.4375 46.1167 28.4375 47.7605C28.4375 49.4043 29.0905 50.9807 30.2528 52.1431C31.4152 53.3054 32.9916 53.9584 34.6354 53.9584H35.3646C37.0084 53.9584 38.5848 53.3054 39.7472 52.1431C40.9095 50.9807 41.5625 49.4043 41.5625 47.7605C41.5625 46.1167 42.2155 44.5402 43.3778 43.3779C44.5402 42.2156 46.1166 41.5626 47.7604 41.5626C49.4042 41.5626 50.9807 40.9096 52.143 39.7473C53.3053 38.5849 53.9583 37.0085 53.9583 35.3647V34.6355C53.9583 32.9917 53.3053 31.4152 52.143 30.2529C50.9807 29.0906 49.4042 28.4376 47.7604 28.4376Z" stroke="#FF2E2E" stroke-linecap="round" stroke-linejoin="round"/>
    <path d="M48.6646 39.3822C47.5024 38.2199 46.8496 36.6435 46.8496 34.9999C46.8496 33.3562 47.5024 31.7799 48.6646 30.6176C49.8267 29.4553 50.4796 27.8789 50.4796 26.2353C50.4796 24.5917 49.8267 23.0153 48.6646 21.853L48.1483 21.3368C46.986 20.1746 45.4097 19.5217 43.766 19.5217C42.1224 19.5217 40.5461 20.1746 39.3838 21.3368C38.8082 21.9124 38.1249 22.3691 37.3729 22.6806C36.6208 22.9922 35.8148 23.1525 35.0007 23.1525C34.1867 23.1525 33.3807 22.9922 32.6286 22.6806C31.8766 22.3691 31.1933 21.9124 30.6177 21.3368C29.4554 20.1746 27.8791 19.5217 26.2354 19.5217C24.5918 19.5217 23.0154 20.1746 21.8531 21.3368L21.3369 21.8516C20.1747 23.0139 19.5219 24.5902 19.5219 26.2338C19.5219 27.8775 20.1747 29.4538 21.3369 30.6161C21.9125 31.1917 22.3692 31.875 22.6807 32.627C22.9923 33.3791 23.1526 34.1851 23.1526 34.9992C23.1526 35.8132 22.9923 36.6192 22.6807 37.3713C22.3692 38.1233 21.9125 38.8066 21.3369 39.3822C20.1747 40.5445 19.5219 42.1208 19.5219 43.7645C19.5219 45.4081 20.1747 46.9844 21.3369 48.1468L21.8517 48.663C23.014 49.8252 24.5903 50.478 26.234 50.478C27.8776 50.478 29.4539 49.8252 30.6163 48.663C31.1918 48.0873 31.8751 47.6307 32.6272 47.3192C33.3792 47.0076 34.1853 46.8472 34.9993 46.8472C35.8133 46.8472 36.6194 47.0076 37.3714 47.3192C38.1234 47.6307 38.8068 48.0873 39.3823 48.663C40.5446 49.8252 42.1209 50.478 43.7646 50.478C45.4082 50.478 46.9846 49.8252 48.1469 48.663L48.6631 48.1482C49.8253 46.9859 50.4782 45.4096 50.4782 43.7659C50.4782 42.1223 49.8253 40.5459 48.6631 39.3836L48.6646 39.3822Z" stroke="#FF2E2E" stroke-linecap="round" stroke-linejoin="round"/>
</svg>
