<svg width="70" height="70" viewBox="0 0 70 70" fill="none" xmlns="http://www.w3.org/2000/svg">
    <path d="M29.75 38.5L26.6875 35.4375C27.0764 34.9028 27.3437 34.3554 27.4896 33.7954C27.6354 33.2354 27.7083 32.6647 27.7083 32.0833C27.7083 31.5 27.6354 30.9283 27.4896 30.3683C27.3437 29.8083 27.0764 29.2862 26.6875 28.8021L29.75 25.6667C30.5278 26.5903 31.1111 27.6111 31.5 28.7292C31.8889 29.8472 32.0833 30.9653 32.0833 32.0833C32.0833 33.2014 31.8889 34.3078 31.5 35.4025C31.1111 36.4972 30.5278 37.5297 29.75 38.5ZM35.9479 44.7708L32.8125 41.6354C34.0278 40.2743 34.9397 38.7674 35.5483 37.1146C36.1569 35.4618 36.4603 33.7847 36.4583 32.0833C36.4583 30.3819 36.155 28.7175 35.5483 27.09C34.9417 25.4625 34.0297 23.9672 32.8125 22.6042L35.9479 19.4688C37.6007 21.2674 38.8286 23.2488 39.6317 25.4129C40.4347 27.5771 40.8353 29.8006 40.8333 32.0833C40.8333 34.3681 40.4318 36.6042 39.6287 38.7917C38.8257 40.9792 37.5987 42.9722 35.9479 44.7708ZM14.5833 35C12.9792 35 11.6054 34.4283 10.4621 33.285C9.31874 32.1417 8.74804 30.7689 8.74999 29.1667C8.74999 27.5625 9.32166 26.1887 10.465 25.0454C11.6083 23.9021 12.9811 23.3314 14.5833 23.3333C16.1875 23.3333 17.5612 23.905 18.7046 25.0483C19.8479 26.1917 20.4186 27.5644 20.4167 29.1667C20.4167 30.7708 19.845 32.1446 18.7017 33.2879C17.5583 34.4312 16.1855 35.0019 14.5833 35ZM2.91666 46.6667V44.9896C2.91666 43.8229 3.23263 42.7535 3.86457 41.7812C4.49652 40.809 5.37152 40.0799 6.48957 39.5937C7.75346 39.059 9.05429 38.6458 10.3921 38.3542C11.7298 38.0625 13.1269 37.9167 14.5833 37.9167C16.0417 37.9167 17.4397 38.0625 18.7775 38.3542C20.1153 38.6458 21.4151 39.059 22.6771 39.5937C23.7951 40.0799 24.6701 40.809 25.3021 41.7812C25.934 42.7535 26.25 43.8229 26.25 44.9896V46.6667H2.91666ZM55.4166 35C53.8125 35 52.4387 34.4283 51.2954 33.285C50.1521 32.1417 49.5814 30.7689 49.5833 29.1667C49.5833 27.5625 50.155 26.1887 51.2983 25.0454C52.4416 23.9021 53.8144 23.3314 55.4166 23.3333C57.0208 23.3333 58.3946 23.905 59.5379 25.0483C60.6812 26.1917 61.2519 27.5644 61.25 29.1667C61.25 30.7708 60.6783 32.1446 59.535 33.2879C58.3917 34.4312 57.0189 35.0019 55.4166 35ZM43.75 46.6667V44.9896C43.75 43.8229 44.066 42.7535 44.6979 41.7812C45.3298 40.809 46.2048 40.0799 47.3229 39.5937C48.5868 39.059 49.8867 38.6458 51.2225 38.3542C52.5583 38.0625 53.9564 37.9167 55.4166 37.9167C56.875 37.9167 58.2721 38.0625 59.6079 38.3542C60.9437 38.6458 62.2446 39.059 63.5104 39.5937C64.6285 40.0799 65.5035 40.809 66.1354 41.7812C66.7673 42.7535 67.0833 43.8229 67.0833 44.9896V46.6667H43.75Z" fill="#02012A" fill-opacity="0.85"/>
</svg>
